<svg aria-hidden="true" style="position: absolute; width: 0; height: 0; overflow: hidden;" version="1.1" xmlns="http://www.w3.org/2000/svg" xmlns:xlink="http://www.w3.org/1999/xlink">
	<defs>
		<symbol id="icon-facebook" viewBox="0 0 32 32">
			<path d="M29 0h-26c-1.65 0-3 1.35-3 3v26c0 1.65 1.35 3 3 3h13v-14h-4v-4h4v-2c0-3.306 2.694-6 6-6h4v4h-4c-1.1 0-2 0.9-2 2v2h6l-1 4h-5v14h9c1.65 0 3-1.35 3-3v-26c0-1.65-1.35-3-3-3z">
			</path>
		</symbol>
		<symbol id="icon-instagram" viewBox="0 0 32 32">
			<path d="M16 2.881c4.275 0 4.781 0.019 6.462 0.094 1.563 0.069 2.406 0.331 2.969 0.55 0.744 0.288 1.281 0.638 1.837 1.194 0.563 0.563 0.906 1.094 1.2 1.838 0.219 0.563 0.481 1.412 0.55 2.969 0.075 1.688 0.094 2.194 0.094 6.463s-0.019 4.781-0.094 6.463c-0.069 1.563-0.331 2.406-0.55 2.969-0.288 0.744-0.637 1.281-1.194 1.837-0.563 0.563-1.094 0.906-1.837 1.2-0.563 0.219-1.413 0.481-2.969 0.55-1.688 0.075-2.194 0.094-6.463 0.094s-4.781-0.019-6.463-0.094c-1.563-0.069-2.406-0.331-2.969-0.55-0.744-0.288-1.281-0.637-1.838-1.194-0.563-0.563-0.906-1.094-1.2-1.837-0.219-0.563-0.481-1.413-0.55-2.969-0.075-1.688-0.094-2.194-0.094-6.463s0.019-4.781 0.094-6.463c0.069-1.563 0.331-2.406 0.55-2.969 0.288-0.744 0.638-1.281 1.194-1.838 0.563-0.563 1.094-0.906 1.838-1.2 0.563-0.219 1.412-0.481 2.969-0.55 1.681-0.075 2.188-0.094 6.463-0.094zM16 0c-4.344 0-4.887 0.019-6.594 0.094-1.7 0.075-2.869 0.35-3.881 0.744-1.056 0.412-1.95 0.956-2.837 1.85-0.894 0.888-1.438 1.781-1.85 2.831-0.394 1.019-0.669 2.181-0.744 3.881-0.075 1.713-0.094 2.256-0.094 6.6s0.019 4.887 0.094 6.594c0.075 1.7 0.35 2.869 0.744 3.881 0.413 1.056 0.956 1.95 1.85 2.837 0.887 0.887 1.781 1.438 2.831 1.844 1.019 0.394 2.181 0.669 3.881 0.744 1.706 0.075 2.25 0.094 6.594 0.094s4.888-0.019 6.594-0.094c1.7-0.075 2.869-0.35 3.881-0.744 1.050-0.406 1.944-0.956 2.831-1.844s1.438-1.781 1.844-2.831c0.394-1.019 0.669-2.181 0.744-3.881 0.075-1.706 0.094-2.25 0.094-6.594s-0.019-4.887-0.094-6.594c-0.075-1.7-0.35-2.869-0.744-3.881-0.394-1.063-0.938-1.956-1.831-2.844-0.887-0.887-1.781-1.438-2.831-1.844-1.019-0.394-2.181-0.669-3.881-0.744-1.712-0.081-2.256-0.1-6.6-0.1v0z">
			</path>
			<path d="M16 7.781c-4.537 0-8.219 3.681-8.219 8.219s3.681 8.219 8.219 8.219 8.219-3.681 8.219-8.219c0-4.537-3.681-8.219-8.219-8.219zM16 21.331c-2.944 0-5.331-2.387-5.331-5.331s2.387-5.331 5.331-5.331c2.944 0 5.331 2.387 5.331 5.331s-2.387 5.331-5.331 5.331z">
			</path>
			<path d="M26.462 7.456c0 1.060-0.859 1.919-1.919 1.919s-1.919-0.859-1.919-1.919c0-1.060 0.859-1.919 1.919-1.919s1.919 0.859 1.919 1.919z">
			</path>
		</symbol>
		<symbol id="icon-github" viewBox="0 0 32 32">
			<path d="M16 0.395c-8.836 0-16 7.163-16 16 0 7.069 4.585 13.067 10.942 15.182 0.8 0.148 1.094-0.347 1.094-0.77 0-0.381-0.015-1.642-0.022-2.979-4.452 0.968-5.391-1.888-5.391-1.888-0.728-1.849-1.776-2.341-1.776-2.341-1.452-0.993 0.11-0.973 0.11-0.973 1.606 0.113 2.452 1.649 2.452 1.649 1.427 2.446 3.743 1.739 4.656 1.33 0.143-1.034 0.558-1.74 1.016-2.14-3.554-0.404-7.29-1.777-7.29-7.907 0-1.747 0.625-3.174 1.649-4.295-0.166-0.403-0.714-2.030 0.155-4.234 0 0 1.344-0.43 4.401 1.64 1.276-0.355 2.645-0.532 4.005-0.539 1.359 0.006 2.729 0.184 4.008 0.539 3.054-2.070 4.395-1.64 4.395-1.64 0.871 2.204 0.323 3.831 0.157 4.234 1.026 1.12 1.647 2.548 1.647 4.295 0 6.145-3.743 7.498-7.306 7.895 0.574 0.497 1.085 1.47 1.085 2.963 0 2.141-0.019 3.864-0.019 4.391 0 0.426 0.288 0.925 1.099 0.768 6.354-2.118 10.933-8.113 10.933-15.18 0-8.837-7.164-16-16-16z">
			</path>
		</symbol>
		<symbol id="chevron-circle-up" viewBox="0 0 512 512">
			<path d="M8 256C8 119 119 8 256 8s248 111 248 248-111 248-248 248S8 393 8 256zm231-113.9L103.5 277.6c-9.4 9.4-9.4 24.6 0 33.9l17 17c9.4 9.4 24.6 9.4 33.9 0L256 226.9l101.6 101.6c9.4 9.4 24.6 9.4 33.9 0l17-17c9.4-9.4 9.4-24.6 0-33.9L273 142.1c-9.4-9.4-24.6-9.4-34 0z">
			</path>
		</symbol>
		<symbol id="icon-web" viewBox="0 0 25 24">
			<path d="M0 0v20.52h8.024v1.468H6.557v1.465h11.885v-1.465h-1.466V20.52H25V0H0zm15.511 21.988H9.489V20.52h6.022v1.468zm8.024-2.932H1.465v-2.934h22.07v2.934zm0-4.399H1.465V1.465h22.07v13.192z">
			</path>
		</symbol>
		<symbol id="icon-design" viewBox="0 0 25 21">
			<path d="M23.387 0H1.613A1.615 1.615 0 000 1.613v13.71a1.615 1.615 0 001.613 1.613h8.311l-.537 1.612H8.065a.403.403 0 00-.404.404v.806H4.032a.403.403 0 100 .806h17.742a.403.403 0 000-.806H17.34v-.806a.403.403 0 00-.403-.404h-1.323l-.537-1.612h8.311A1.616 1.616 0 0025 15.323V1.613A1.615 1.615 0 0023.387 0zm-6.855 19.355v.403H8.468v-.403h8.064zm-6.295-.807l.538-1.612h3.45l.538 1.612h-4.526zm13.957-3.225a.807.807 0 01-.807.806H1.613a.807.807 0 01-.807-.806v-.807h23.387v.807zM6.837 10.08l-.152 3.629h-.47l-.15-3.63h.772zm-.717-.807l.27-1.613h.122l.27 1.613H6.12zm.33-2.42c-.436 0-.806-.553-.806-1.209 0-.414.423-1.015.806-1.439.345.383.807.996.807 1.44 0 .655-.37 1.209-.806 1.209zm4.389-.806l.047.096v.308H9.274v-.308l.048-.096h1.518zm-1.115-.806l.356-.711.356.71h-.712zm1.162 2.016v6.401c0 .017.001.034.004.05H9.27a.417.417 0 00.003-.05v-6.4h1.613zm3.63-1.613h1.209v.807h-.403a.403.403 0 100 .806h.403v.807h-1.21a.403.403 0 000 .806h1.21v.806h-.403a.403.403 0 100 .807h.403v.806h-1.21a.403.403 0 000 .807h1.21v1.613h-2.823V4.032h2.823v.807h-1.21a.403.403 0 000 .806zm4.838 4.839v3.175c0 .017.001.034.003.05h-1.62a.405.405 0 00.004-.05v-3.175h1.613zm-1.613-.807V9.37l.806-1.612.807 1.612v.308h-1.613zm6.451 4.033h-4.035a.425.425 0 00.003-.05V9.273a.41.41 0 00-.042-.18l-1.21-2.42a.404.404 0 00-.721 0l-1.21 2.42a.406.406 0 00-.043.18v4.385c0 .017.002.034.004.05h-.407V3.63a.403.403 0 00-.403-.403H12.5a.403.403 0 00-.403.403v10.08h-.407a.405.405 0 00.004-.05V6.05a.406.406 0 00-.043-.181l-1.21-2.42a.403.403 0 00-.721 0l-1.21 2.42a.407.407 0 00-.042.18v7.611a.42.42 0 00.003.05h-.978l.168-4.015v-.04a.407.407 0 00-.005-.042V9.61l-.373-2.239c.468-.353.782-.995.782-1.727 0-1.036-1.202-2.184-1.339-2.311a.404.404 0 00-.55 0C6.04 3.46 4.84 4.609 4.84 5.645c0 .732.313 1.374.781 1.727l-.373 2.239a.404.404 0 00-.005.043v.04l.168 4.016H.806V1.613a.807.807 0 01.807-.807h21.774a.807.807 0 01.806.807V13.71z">
			</path>
			<path d="M4.436 14.92h-2.42a.403.403 0 000 .806h2.42a.403.403 0 000-.807zm1.612 0h-.403a.403.403 0 000 .806h.403a.403.403 0 000-.807zm4.032-7.259a.403.403 0 00-.403.403V12.5a.403.403 0 00.807 0V8.064a.403.403 0 00-.403-.403zm8.468 3.226a.404.404 0 00-.403.403v1.21a.403.403 0 00.807 0v-1.21a.403.403 0 00-.404-.403zM2.016 2.42h3.226a.403.403 0 000-.807H2.016a.403.403 0 100 .806zm0 1.21h.807a.403.403 0 100-.807h-.807a.403.403 0 100 .806zm19.354 9.273h1.614a.404.404 0 000-.806H21.37a.403.403 0 000 .806zm1.21-1.209h.404a.403.403 0 100-.807h-.403a.404.404 0 000 .806z">
			</path>
		</symbol>
		<symbol id="icon-development" viewBox="0 0 14 25">
			<path d="M11.719 0H1.563A1.565 1.565 0 000 1.563v21.093a1.565 1.565 0 001.563 1.563h10.156a1.565 1.565 0 001.562-1.563V1.563A1.564 1.564 0 0011.72 0zm-3.25.781l-.22.781H4.993l-.196-.78H8.47zM12.5 22.656a.783.783 0 01-.781.782H1.563a.783.783 0 01-.782-.782V1.563A.782.782 0 011.562.78h2.43l.317 1.267a.39.39 0 00.378.296h3.858a.39.39 0 00.376-.285L9.28.781h2.438a.782.782 0 01.781.781v21.094z">
			</path>
			<path d="M4.688 21.875H1.953a.39.39 0 000 .781h2.734a.39.39 0 100-.781zm1.562 0h-.39a.39.39 0 000 .781h.39a.39.39 0 100-.781zM8.013 9.821a.39.39 0 00-.535.134l-2.344 3.906a.39.39 0 10.67.402l2.343-3.906a.391.391 0 00-.134-.536zm1.277.091a.39.39 0 00-.61.488l1.367 1.71-1.368 1.708a.39.39 0 00.61.489l1.563-1.954a.391.391 0 000-.488L9.289 9.912zm-5.298 4.395a.391.391 0 00.61-.489L3.235 12.11l1.367-1.71a.39.39 0 10-.61-.488l-1.563 1.953a.39.39 0 000 .489l1.563 1.953z">
			</path>
		</symbol>
		<symbol id="icon-university" viewBox="0 0 21 25">
			<path d="M17.717 16.333l-1.467-.43-3.193-2.086v-.478a4.248 4.248 0 001.677-2.984.976.976 0 00.819-.961V6.401a.722.722 0 00.301-.59V4.29l2.203-.376a.77.77 0 00.648-.715.77.77 0 00-.542-.799L10.736.037a.777.777 0 00-.474 0L2.836 2.399a.77.77 0 00-.543.799.771.771 0 00.3.565v1.991h-.019a.76.76 0 00-.758.759V7.5l-.49 2.874a.815.815 0 00.804.952h1.658a.815.815 0 00.803-.952L4.101 7.5v-.988a.76.76 0 00-.758-.759h-.018V3.98l1.82.31v1.52c0 .241.118.456.301.589l.001 1.68v1.314c0 .484.355.887.819.961a4.25 4.25 0 001.675 2.983v.48l-3.192 2.085-1.466.43a3.724 3.724 0 00-2.676 3.575V21a.366.366 0 00.732 0v-1.092c0-1.32.885-2.5 2.15-2.872l1.367-.401 5.457 3.243a.37.37 0 00.374 0l5.458-3.243 1.366.4a3.01 3.01 0 012.15 2.873v3.537c0 .454-.37.823-.823.823h-1.614v-1.579a.366.366 0 10-.732 0v1.579H4.507v-1.579a.366.366 0 10-.733 0v1.579H2.162a.824.824 0 01-.823-.823v-.734a.366.366 0 00-.732 0v.734c0 .857.697 1.555 1.555 1.555h16.676c.858 0 1.555-.698 1.555-1.555v-3.537a3.724 3.724 0 00-2.676-3.575zm-13.93-5.739H2.13a.083.083 0 01-.082-.096l.443-2.6h.935l.443 2.6a.083.083 0 01-.082.096zM3.37 6.513v.653h-.82v-.653c0-.015.01-.027.025-.027h.769c.014 0 .026.012.026.027zM9.19 18.22l.146.224-3.739-2.221 2.373-1.55a7.692 7.692 0 001.22 3.547zm-.002-1.58a9.414 9.414 0 002.624 0c-.166.41-.372.805-.616 1.18l-.696 1.07-.696-1.07a6.994 6.994 0 01-.616-1.18zm2.622 1.58a7.69 7.69 0 001.22-3.547l2.373 1.55-3.739 2.221.146-.224zm2.142-11.684h.868v1.177h-.431a.438.438 0 01-.437-.437v-.74zM3.058 3.097L10.485.735a.048.048 0 01.029 0l7.427 2.362c.015.005.036.012.034.05-.003.038-.025.042-.04.044l-2.456.418-.922-.114a.366.366 0 00-.09.727l.655.081v1.502H5.878V4.302l3.79-.469a6.783 6.783 0 011.663 0l1.434.178a.366.366 0 00.09-.727l-1.434-.177a7.513 7.513 0 00-1.843 0L5.52 3.61l-2.456-.42c-.016-.002-.037-.006-.04-.044-.003-.038.018-.045.034-.05zm3.121 4.617V6.537h.87v.74a.438.438 0 01-.438.437h-.432zm.806 2.453a.567.567 0 00-.564-.532.242.242 0 01-.242-.241v-.948h.432a1.17 1.17 0 001.17-1.17v-.739h5.438v.74c0 .644.525 1.17 1.17 1.17h.432v.947a.242.242 0 01-.242.241.567.567 0 00-.564.532 3.527 3.527 0 01-3.515 3.298 3.527 3.527 0 01-3.515-3.298zm3.515 4.03c.651 0 1.27-.149 1.825-.414v.232c0 .627-.084 1.244-.247 1.84a8.65 8.65 0 01-3.156 0 6.978 6.978 0 01-.247-1.84l-.002-.023v-.209a4.228 4.228 0 001.827.414z">
			</path>
		</symbol>
		<symbol id="icon-courses" viewBox="0 0 25 24">
			<path d="M2.93 14.954l-1.865-.411C.52 15.645 0 16.883 0 18.31c0 1.4.498 2.623 1.065 3.767l6.308-1.391v2.744l2.197-1.099 2.198 1.1v-2.744l6.258 1.391c.543-1.094 1.066-2.335 1.066-3.768 0-.247-.018-.493-.05-.733H25V0H2.93v14.954zm-1.03 5.44c-.19-.504-.435-1.304-.435-2.083 0-.78.245-1.58.436-2.084l5.472 1.207v1.753l-5.472 1.207zm8.403.667l-.733-.366-.732.366v-3.483h1.465v3.483zm6.888-.668l-5.423-1.205v-1.755l5.423-1.205c.19.504.436 1.304.436 2.082 0 .78-.245 1.58-.436 2.083zm6.344-18.928v14.648h-4.831c-.24-.734-.434-1.081-.678-1.571l-7.071 1.571h-2.77l-3.79-.836V1.465h19.14z">
			</path>
			<path d="M8.838 2.93h10.254v1.465H8.838V2.93zM5.86 8.79h16.21v1.464H5.86V8.789zm2.978 2.929h10.254v1.465H8.838v-1.465zm1.465-5.859h1.465v1.464h-1.465V5.86zm2.929 0h1.465v1.464h-1.465V5.86zm2.93 0h1.465v1.464h-1.465V5.86z">
			</path>
		</symbol>
		<symbol id="icon-frontend" viewBox="0 0 25 25">
			<path d="M22.5 3.75H11.25v.833H22.5V3.75zm-4.167 1.667H11.25v.833h7.083v-.833zm0 1.666H11.25v.834h7.083v-.834zm4.167-5h-7.917v.834H22.5v-.834zm-8.75 0h-.833v.834h.833v-.834zm-.833 14.584h-.834v.833h.834v-.833zM6.961 2.795l-.589-.59-.833.834a.417.417 0 000 .589l.833.833.59-.589-.54-.539.54-.538zm3.334.244l-.834-.834-.589.59.539.538-.539.54.59.588.833-.833a.417.417 0 000-.59zM7.938 1.951l-.834 2.5.79.264.834-2.5-.79-.264zm13.729 10.966V9.583h-.834v3.334H20V8.75h-.833v4.167h-.834v-2.084H17.5v2.084h-.833v-2.5h-.834v2.5H15V11.25h-.833v1.667h-.834v.833H22.5v-.833h-.833z">
			</path>
			<path d="M22.083 0H2.917a2.502 2.502 0 00-2.5 2.5v14.167a2.503 2.503 0 002.5 2.5h5.159L6.409 22.5H4.167a1.25 1.25 0 100 2.5h16.666a1.25 1.25 0 000-2.5h-2.242l-1.667-3.333h5.16a2.503 2.503 0 002.5-2.5V2.5a2.503 2.503 0 00-2.5-2.5zM1.25 5.862l.947 1.128a.42.42 0 00.32.149h1.275c.123 0 .24-.055.319-.149l.947-1.128.935.304.104 1.468c.008.123.07.236.17.308l1.032.75c.1.072.226.097.346.067l1.43-.355.579.795-.78 1.25a.416.416 0 00-.04.35l.394 1.213a.417.417 0 00.24.257l1.365.554v.983l-1.366.554a.414.414 0 00-.24.258L9.102 15h-2.4A3.923 3.923 0 001.25 9.884V5.862zm0 5.013A3.095 3.095 0 015.75 15h-4.5v-4.125zm19.583 12.458a.417.417 0 010 .834H4.167a.417.417 0 010-.834h16.666zM17.66 22.5H7.341l1.667-3.333h6.985l1.666 3.333zm6.091-5.833c0 .92-.746 1.666-1.667 1.666H2.917c-.92 0-1.667-.746-1.667-1.666v-.834h22.5v.834zm0-1.667H10.106l1.3-.527a.417.417 0 00.26-.386v-1.545a.417.417 0 00-.26-.387l-1.448-.585-.274-.844.826-1.325a.417.417 0 00-.017-.465l-.908-1.25a.417.417 0 00-.437-.16l-1.515.375-.716-.52-.11-1.554a.417.417 0 00-.287-.367l-1.469-.478a.42.42 0 00-.448.13L3.6 6.304h-.888L1.708 5.111a.42.42 0 00-.448-.128l-.01.003V2.5c0-.92.746-1.667 1.667-1.667h19.166c.92 0 1.667.747 1.667 1.667V15z">
			</path>
		</symbol>
		<symbol id="icon-designer" viewBox="0 0 22 25">
			<path d="M18.265 19.146l-.65.433 1.53 2.296H1.855l1.823-2.734h9.924v-.782H3.47a.39.39 0 00-.325.174L.8 22.05a.393.393 0 00-.066.217v1.172a.781.781 0 00.782.78h17.968a.781.781 0 00.782-.78v-1.172a.393.393 0 00-.066-.217l-1.935-2.903zm-16.75 4.291v-.78h17.97v.78H1.514zM18.313.781H2.688a1.175 1.175 0 00-1.172 1.172V12.11a1.175 1.175 0 001.171 1.172h5.47v1.563H6.593a.39.39 0 00-.39.39v1.563a.39.39 0 00.39.39h7.812a.391.391 0 00.39-.39v-1.563a.39.39 0 00-.39-.39h-1.562V13.28h5.469a1.175 1.175 0 001.171-1.172V1.953A1.176 1.176 0 0018.312.781zm-4.297 14.844v.781H6.984v-.781h7.032zm-5.079-.781V13.28h3.126v1.563H8.937zm9.766-2.735a.39.39 0 01-.39.391H2.688a.39.39 0 01-.391-.39v-1.172h16.406v1.171zm0-1.953H2.297V1.953a.39.39 0 01.39-.39h15.626a.39.39 0 01.39.39v8.203z">
			</path>
			<path d="M16.36 11.328h.78v.781h-.78v-.78zM6.984 9.375h1.563a.39.39 0 00.39-.39v-.391h3.126v.39a.39.39 0 00.39.391h1.563a.39.39 0 00.39-.39V7.421a.39.39 0 00-.39-.39h-.391V4.686h.39a.39.39 0 00.391-.39V2.734a.39.39 0 00-.39-.39h-1.563a.39.39 0 00-.39.39v.391H8.937v-.39a.39.39 0 00-.39-.391H6.984a.39.39 0 00-.39.39v1.563a.39.39 0 00.39.39h.391v2.344h-.39a.39.39 0 00-.391.39v1.563a.39.39 0 00.39.391zm6.641-.781h-.781v-.781h.781v.78zm-.781-5.469h.781v.781h-.781v-.781zm-5.469 0h.781v.781h-.781v-.781zm.781 1.563h.39a.39.39 0 00.392-.391v-.39h3.124v.39a.39.39 0 00.391.39h.39v2.344h-.39a.39.39 0 00-.39.39v.391H8.937v-.39a.39.39 0 00-.39-.39h-.39V4.686zm-.781 3.125h.781v.78h-.781v-.78zm-.391 12.5h5.47v.78h-5.47v-.78zm14.403-5.923l-1.106-1.105a.386.386 0 00-.277-.113.38.38 0 00-.274.113l-5.25 5.25a.384.384 0 00-.093.152l-.278.829a.395.395 0 00.094.398l-.55.555.55.55.555-.55a.386.386 0 00.398.093l.828-.277a.384.384 0 00.153-.094l5.25-5.25a.39.39 0 000-.55zm-5.735 5.184l-.511.168-.215-.21.172-.512 3.8-3.801.555.55-3.8 3.805zm4.352-4.355l-.55-.551.55-.555.555.555-.555.55z">
			</path>
		</symbol>
	</defs>
</svg>
